<?xml version="1.0" encoding="UTF-8"?>
<svg version="1.1" xmlns="http://www.w3.org/2000/svg" width="512" height="512">
<path d="M0 0 C1.45108658 0.00273422 1.45108658 0.00273422 2.93148804 0.00552368 C17.26440977 0.05095174 31.21023917 0.55983928 45.3125 3.3125 C46.65803955 3.55395752 46.65803955 3.55395752 48.03076172 3.80029297 C107.84088904 14.62287989 165.35495829 48.68064457 202.3125 97.3125 C202.72918945 97.85277832 203.14587891 98.39305664 203.57519531 98.94970703 C211.2584873 108.9447116 218.00092968 119.40459036 224.3125 130.3125 C224.70679199 130.98974121 225.10108398 131.66698242 225.50732422 132.36474609 C238.68961173 155.2833756 247.29510918 180.85822563 252.625 206.6875 C252.77243652 207.39817627 252.91987305 208.10885254 253.07177734 208.84106445 C256.05713787 224.48358366 256.6873098 240.11919606 256.625 256 C256.62226578 257.45108658 256.62226578 257.45108658 256.61947632 258.93148804 C256.57404826 273.26440977 256.06516072 287.21023917 253.3125 301.3125 C253.15152832 302.20952637 252.99055664 303.10655273 252.82470703 304.03076172 C242.00212011 363.84088904 207.94435543 421.35495829 159.3125 458.3125 C158.77222168 458.72918945 158.23194336 459.14587891 157.67529297 459.57519531 C147.6802884 467.2584873 137.22040964 474.00092968 126.3125 480.3125 C125.63525879 480.70679199 124.95801758 481.10108398 124.26025391 481.50732422 C101.3416244 494.68961173 75.76677437 503.29510918 49.9375 508.625 C49.22682373 508.77243652 48.51614746 508.91987305 47.78393555 509.07177734 C31.97326237 512.08922991 16.17595586 512.68791194 0.125 512.625 C-0.86673218 512.62284485 -1.85846436 512.6206897 -2.88024902 512.61846924 C-17.33008872 512.568096 -31.4925549 512.26723609 -45.6875 509.3125 C-46.66380371 509.11382324 -47.64010742 508.91514648 -48.64599609 508.71044922 C-95.31750455 498.94607627 -135.79703423 478.50411798 -171.6875 447.3125 C-172.61046875 446.51457031 -173.5334375 445.71664063 -174.484375 444.89453125 C-178.91083025 440.99790928 -182.9987395 437.02960266 -186.79296875 432.515625 C-188.64520433 430.36168507 -190.57824052 428.30165714 -192.53320312 426.24121094 C-223.40848411 393.45501201 -242.97812223 349.65857497 -252 305.9375 C-252.14743652 305.22682373 -252.29487305 304.51614746 -252.44677734 303.78393555 C-255.43213787 288.14141634 -256.0623098 272.50580394 -256 256.625 C-255.99817719 255.65760895 -255.99635437 254.6902179 -255.99447632 253.69351196 C-255.94904826 239.36059023 -255.44016072 225.41476083 -252.6875 211.3125 C-252.44604248 209.96696045 -252.44604248 209.96696045 -252.19970703 208.59423828 C-241.37712011 148.78411096 -207.31935543 91.27004171 -158.6875 54.3125 C-158.14722168 53.89581055 -157.60694336 53.47912109 -157.05029297 53.04980469 C-147.0552884 45.3665127 -136.59540964 38.62407032 -125.6875 32.3125 C-125.01025879 31.91820801 -124.33301758 31.52391602 -123.63525391 31.11767578 C-100.7166244 17.93538827 -75.14177437 9.32989082 -49.3125 4 C-48.60182373 3.85256348 -47.89114746 3.70512695 -47.15893555 3.55322266 C-31.51641634 0.56786213 -15.88080394 -0.0623098 0 0 Z " fill="#90DEA9" transform="translate(255.6875,-0.3125)"/>
<path d="M0 0 C3.06642294 3.00319772 5.90637778 6.05756231 8.625 9.375 C16.94554542 18.70456679 27.96766583 24.22293133 40.46484375 25.19091797 C48.94649412 25.5705758 56.86566127 25.68821476 65 23 C65.79664063 22.78859375 66.59328125 22.5771875 67.4140625 22.359375 C73.7148069 20.62277407 79.43631041 18.05504295 85.3125 15.20703125 C88 14 88 14 90 14 C88.94124926 17.40312738 87.99097846 20.01353231 86 23 C86.72960937 22.7834375 87.45921875 22.566875 88.2109375 22.34375 C102.13156718 18.63158209 117.75619105 17.71738093 130.86328125 24.4765625 C143.40612363 31.91061522 149.5306325 42.0575849 153.15625 56.13671875 C154.38087945 62.01805623 154.25320509 67.89237862 154.1875 73.875 C154.18685547 74.98230469 154.18621094 76.08960938 154.18554688 77.23046875 C154.13278796 87.20776646 153.40201571 96.90251983 151.4375 106.6875 C151.29892578 107.40099609 151.16035156 108.11449219 151.01757812 108.84960938 C150.68325075 110.56736035 150.34237183 112.28383429 150 114 C158.47199317 102.91285781 165.37090142 90.17512672 170 77 C173.96282252 77.49872256 175.74877591 78.25505206 178.25 81.375 C178.75015625 81.98085937 179.2503125 82.58671875 179.765625 83.2109375 C183.57226249 88.7281526 182.4483572 96.83983323 181.76171875 103.2109375 C179.09544459 115.976735 170.55293967 128.48932 159.86328125 135.81640625 C159.24839844 136.20699219 158.63351562 136.59757813 158 137 C156.5459375 137.928125 156.5459375 137.928125 155.0625 138.875 C150.97328663 140.37716001 147.30706029 140.25842362 143 140 C142.7421875 140.70125 142.484375 141.4025 142.21875 142.125 C138.1224232 151.78812989 131.48169157 160.24898947 125.00390625 168.41796875 C123.01511947 170.80718758 123.01511947 170.80718758 122 173 C122.72266613 175.64683815 123.50513588 178.21447499 124.375 180.8125 C126.36449346 186.85203372 128.15849009 192.38116424 128.0625 198.8125 C128.05347656 199.60269531 128.04445313 200.39289063 128.03515625 201.20703125 C128.01775391 202.09455078 128.01775391 202.09455078 128 203 C128.60972656 203.28617188 129.21945312 203.57234375 129.84765625 203.8671875 C135.3867149 206.78248153 139.46035991 212.36661652 142 218 C142.28631639 220.06040769 142.55635511 222.12312437 142.8125 224.1875 C143.38619505 227.33588218 143.38619505 227.33588218 145 230 C149.33370948 232.35564442 153.80680979 233.3330972 158.59326172 234.41943359 C162.77977007 235.42932575 166.85229054 236.76868105 170.9375 238.125 C171.81059814 238.4144751 172.68369629 238.7039502 173.58325195 239.00219727 C208.02009896 250.73859107 239.85546336 269.25334059 266.0625 294.5625 C266.84125488 295.29521118 266.84125488 295.29521118 267.63574219 296.04272461 C270.98471934 299.38994898 270.98471934 299.38994898 271.05078125 302.02734375 C261.34011901 320.25739741 240.23992994 338.65854432 224 351 C223.45972168 351.41668945 222.91944336 351.83337891 222.36279297 352.26269531 C212.3677884 359.9459873 201.90790964 366.68842968 191 373 C190.32275879 373.39429199 189.64551758 373.78858398 188.94775391 374.19482422 C166.0291244 387.37711173 140.45427437 395.98260918 114.625 401.3125 C113.91432373 401.45993652 113.20364746 401.60737305 112.47143555 401.75927734 C96.66076237 404.77672991 80.86345586 405.37541194 64.8125 405.3125 C63.82076782 405.31034485 62.82903564 405.3081897 61.80725098 405.30596924 C47.35741128 405.255596 33.1949451 404.95473609 19 402 C18.02369629 401.80132324 17.04739258 401.60264648 16.04150391 401.39794922 C-30.63000455 391.63357627 -71.10953423 371.19161798 -107 340 C-107.92296875 339.20207031 -108.8459375 338.40414063 -109.796875 337.58203125 C-114.2160331 333.69183299 -118.29655276 329.72829318 -122.08984375 325.2265625 C-124.0238138 322.97224158 -126.02855346 320.79360043 -128.05175781 318.61938477 C-133.0065638 313.2928848 -137.66773284 307.85521432 -142 302 C-140.40317661 298.07292852 -137.71538056 295.36956168 -134.75 292.4375 C-133.95263428 291.64859375 -133.95263428 291.64859375 -133.13916016 290.84375 C-105.86871633 264.37467796 -70.15172387 246.9934373 -34.375 235.375 C-33.35298996 235.04118317 -33.35298996 235.04118317 -32.31033325 234.70062256 C-30.36351293 234.06918794 -28.41331007 233.44996491 -26.4609375 232.8359375 C-25.33478027 232.48063965 -24.20862305 232.1253418 -23.04833984 231.75927734 C-20.21519024 231.05359936 -17.90098824 230.84119911 -15 231 C-14.896875 230.030625 -14.79375 229.06125 -14.6875 228.0625 C-13.66135984 221.02203833 -11.47783875 214.59729843 -7 209 C-5.79685786 208.11787561 -4.58813867 207.2433254 -3.375 206.375 C0.75113773 202.98473397 0.96146352 199.56920161 1.5390625 194.44140625 C2.06565604 190.5098053 3.00275863 186.81553476 4.0625 183 C4.40410156 181.7625 4.74570313 180.525 5.09765625 179.25 C6 176 6 176 6.828125 173.83203125 C7.20207207 171.85599232 7.20207207 171.85599232 5.69921875 169.94921875 C5.03535156 169.20285156 4.37148437 168.45648438 3.6875 167.6875 C0.03027857 163.36064647 -3.19778952 158.90890938 -6.3125 154.1875 C-6.73249268 153.55352295 -7.15248535 152.9195459 -7.58520508 152.26635742 C-14 142.5121071 -14 142.5121071 -14 140 C-15.11375 140.103125 -16.2275 140.20625 -17.375 140.3125 C-25.64684237 140.22527495 -31.72766318 135.60358804 -37.625 130.1875 C-47.41283844 119.95539088 -53.54828438 106.14436569 -53.24609375 91.94140625 C-52.77115118 86.26471177 -51.58464357 82.40857207 -47.1875 78.5 C-43.75680094 76.88555339 -41.72511233 76.87531005 -38 77 C-37.68248779 77.59014893 -37.36497559 78.18029785 -37.0378418 78.78833008 C-35.59319761 81.46604645 -34.14045413 84.13928426 -32.6875 86.8125 C-32.18798828 87.74126953 -31.68847656 88.67003906 -31.17382812 89.62695312 C-30.44389648 90.9659668 -30.44389648 90.9659668 -29.69921875 92.33203125 C-29.25408936 93.15421143 -28.80895996 93.9763916 -28.3503418 94.82348633 C-27.07651724 96.87666766 -25.78191085 98.38278437 -24 100 C-24.0314209 99.01157104 -24.0314209 99.01157104 -24.06347656 98.00317383 C-24.14799876 94.93977908 -24.19908269 91.87663069 -24.25 88.8125 C-24.28351563 87.77673828 -24.31703125 86.74097656 -24.3515625 85.67382812 C-24.52208032 71.90451442 -19.30820582 60.9142109 -13 48.9375 C-6.35962576 36.29205322 -1.64145301 25.10610781 -0.75 10.75 C-0.67265625 9.70714844 -0.5953125 8.66429688 -0.515625 7.58984375 C-0.32998744 5.06053196 -0.158277 2.53114512 0 0 Z " fill="#E5E8ED" transform="translate(191,107)"/>
<path d="M0 0 C3.06642294 3.00319772 5.90637778 6.05756231 8.625 9.375 C16.94554542 18.70456679 27.96766583 24.22293133 40.46484375 25.19091797 C48.94649412 25.5705758 56.86566127 25.68821476 65 23 C65.79664063 22.78859375 66.59328125 22.5771875 67.4140625 22.359375 C73.7148069 20.62277407 79.43631041 18.05504295 85.3125 15.20703125 C88 14 88 14 90 14 C88.94124926 17.40312738 87.99097846 20.01353231 86 23 C86.72960937 22.7834375 87.45921875 22.566875 88.2109375 22.34375 C102.13156718 18.63158209 117.75619105 17.71738093 130.86328125 24.4765625 C143.40612363 31.91061522 149.5306325 42.0575849 153.15625 56.13671875 C154.38087945 62.01805623 154.25320509 67.89237862 154.1875 73.875 C154.1865332 75.53595703 154.1865332 75.53595703 154.18554688 77.23046875 C154.13278796 87.20776646 153.40201571 96.90251983 151.4375 106.6875 C151.22963867 107.75774414 151.22963867 107.75774414 151.01757812 108.84960938 C150.68325075 110.56736035 150.34237183 112.28383429 150 114 C158.47199317 102.91285781 165.37090142 90.17512672 170 77 C173.96282252 77.49872256 175.74877591 78.25505206 178.25 81.375 C178.75015625 81.98085937 179.2503125 82.58671875 179.765625 83.2109375 C183.57226249 88.7281526 182.4483572 96.83983323 181.76171875 103.2109375 C179.09544459 115.976735 170.55293967 128.48932 159.86328125 135.81640625 C159.24839844 136.20699219 158.63351562 136.59757813 158 137 C157.030625 137.61875 156.06125 138.2375 155.0625 138.875 C150.97328663 140.37716001 147.30706029 140.25842362 143 140 C142.7421875 140.70125 142.484375 141.4025 142.21875 142.125 C138.1224232 151.78812989 131.48169157 160.24898947 125.00390625 168.41796875 C123.01511947 170.80718758 123.01511947 170.80718758 122 173 C122.72266613 175.64683815 123.50513588 178.21447499 124.375 180.8125 C128.29458451 192.71123869 130.67394953 204.40276354 125.1875 216.1875 C114.12907692 235.87905819 94.36975568 246.95518016 74.4375 256.125 C73.79530518 256.43252197 73.15311035 256.74004395 72.49145508 257.05688477 C67.09167911 259.44135704 63.29161497 259.18678021 57.80200195 257.20751953 C55.31402197 256.20165854 52.87606911 255.12027832 50.4375 254 C49.55779541 253.59845703 48.67809082 253.19691406 47.77172852 252.78320312 C29.61612569 244.29547122 10.99803984 232.12402596 3 213 C2.64550781 212.2265625 2.29101562 211.453125 1.92578125 210.65625 C-1.83445415 199.86738893 2.13541962 188.26566295 5.42749023 177.88427734 C5.61641846 177.26246582 5.80534668 176.6406543 6 176 C6.21640137 175.30318115 6.43280273 174.6063623 6.65576172 173.88842773 C7.24394567 171.87196938 7.24394567 171.87196938 5.69921875 169.94921875 C5.03535156 169.20285156 4.37148437 168.45648438 3.6875 167.6875 C0.03027857 163.36064647 -3.19778952 158.90890938 -6.3125 154.1875 C-6.94248901 153.23653442 -6.94248901 153.23653442 -7.58520508 152.26635742 C-14 142.5121071 -14 142.5121071 -14 140 C-15.11375 140.103125 -16.2275 140.20625 -17.375 140.3125 C-25.64684237 140.22527495 -31.72766318 135.60358804 -37.625 130.1875 C-47.41283844 119.95539088 -53.54828438 106.14436569 -53.24609375 91.94140625 C-52.77115118 86.26471177 -51.58464357 82.40857207 -47.1875 78.5 C-43.75680094 76.88555339 -41.72511233 76.87531005 -38 77 C-37.52373169 77.88522339 -37.52373169 77.88522339 -37.0378418 78.78833008 C-35.59319761 81.46604645 -34.14045413 84.13928426 -32.6875 86.8125 C-32.18798828 87.74126953 -31.68847656 88.67003906 -31.17382812 89.62695312 C-30.68720703 90.51962891 -30.20058594 91.41230469 -29.69921875 92.33203125 C-29.25408936 93.15421143 -28.80895996 93.9763916 -28.3503418 94.82348633 C-27.07651724 96.87666766 -25.78191085 98.38278437 -24 100 C-24.02094727 99.34104736 -24.04189453 98.68209473 -24.06347656 98.00317383 C-24.14799876 94.93977908 -24.19908269 91.87663069 -24.25 88.8125 C-24.28351563 87.77673828 -24.31703125 86.74097656 -24.3515625 85.67382812 C-24.52208032 71.90451442 -19.30820582 60.9142109 -13 48.9375 C-6.35962576 36.29205322 -1.64145301 25.10610781 -0.75 10.75 C-0.67265625 9.70714844 -0.5953125 8.66429688 -0.515625 7.58984375 C-0.32998744 5.06053196 -0.158277 2.53114512 0 0 Z " fill="#FECF5B" transform="translate(191,107)"/>
<path d="M0 0 C0.32871094 1.25103516 0.32871094 1.25103516 0.6640625 2.52734375 C2.77004589 10.00101651 5.19928641 15.89958103 10 22 C10.69996094 22.96099609 10.69996094 22.96099609 11.4140625 23.94140625 C22.93473351 38.56379638 44.24731762 50.03755428 62 55 C66.83292436 54.73961906 71.00088967 52.95548462 75.375 51 C76.0661792 50.69239746 76.7573584 50.38479492 77.46948242 50.06787109 C98.59045268 40.46373968 117.01550713 28.21383309 126 6 C126.70756254 2.72898624 126.70756254 2.72898624 127 0 C133.5999887 2.68888428 138.08134603 8.69129435 141 15 C147.46015685 34.27751983 143.60832998 53.8095973 139 73 C138.71640625 74.27746094 138.4328125 75.55492187 138.140625 76.87109375 C136.74992188 82.93610458 134.77239021 88.42707348 132 94 C129.35245591 91.56232221 127.50345868 88.85472033 125.5 85.875 C113.15021198 68.77529351 93.90290159 62.73896562 74.0625 58.625 C62.77343409 56.94215788 53.04712219 58.29393022 42.19824219 61.37744141 C39.4730967 62.14922295 36.74072421 62.8929295 34.0078125 63.63671875 C33.05793457 63.89541748 32.10805664 64.15411621 31.12939453 64.4206543 C30.42669434 64.61183838 29.72399414 64.80302246 29 65 C29.40428223 65.68288086 29.80856445 66.36576172 30.22509766 67.06933594 C38.25927575 80.93578382 44.25374753 91.99944486 40.57763672 108.27490234 C39.46380553 113.52958692 38.85197596 118.868218 38.125 124.1875 C37.77436565 126.58737537 37.42277987 128.9871119 37.0703125 131.38671875 C35.9182988 139.41004465 34.95009215 147.4508757 34 155.5 C32.24277345 170.37109234 30.19819413 185.18692817 28 200 C20.60512334 199.4651249 13.57368739 198.18904159 6.375 196.4375 C4.75452759 196.04377197 4.75452759 196.04377197 3.10131836 195.64208984 C-38.99825394 185.11032025 -75.34212462 165.38224445 -108 137 C-108.92296875 136.20207031 -109.8459375 135.40414062 -110.796875 134.58203125 C-115.2160331 130.69183299 -119.29655276 126.72829318 -123.08984375 122.2265625 C-125.0238138 119.97224158 -127.02855346 117.79360043 -129.05175781 115.61938477 C-134.0065638 110.2928848 -138.66773284 104.85521432 -143 99 C-141.40317661 95.07292852 -138.71538056 92.36956168 -135.75 89.4375 C-134.95263428 88.64859375 -134.95263428 88.64859375 -134.13916016 87.84375 C-106.86871633 61.37467796 -71.15172387 43.9934373 -35.375 32.375 C-34.69365997 32.15245544 -34.01231995 31.92991089 -33.31033325 31.70062256 C-31.36351293 31.06918794 -29.41331007 30.44996491 -27.4609375 29.8359375 C-26.33478027 29.48063965 -25.20862305 29.1253418 -24.04833984 28.75927734 C-21.21519024 28.05359936 -18.90098824 27.84119911 -16 28 C-15.896875 27.030625 -15.79375 26.06125 -15.6875 25.0625 C-14.22172861 15.00567963 -10.30750107 7.63153194 -2.48828125 1.1015625 C-1 0 -1 0 0 0 Z " fill="#E5E8ED" transform="translate(192,310)"/>
<path d="M0 0 C1.31162109 -0.00128906 2.62324219 -0.00257812 3.97460938 -0.00390625 C4.65048096 -0.00181152 5.32635254 0.0002832 6.02270508 0.00244141 C8.08747675 0.00780635 10.1520318 0.0024733 12.21679688 -0.00390625 C14.18229492 -0.00197266 14.18229492 -0.00197266 16.1875 0 C17.37996338 0.00112793 18.57242676 0.00225586 19.80102539 0.00341797 C22.67075183 0.11851105 25.2396521 0.47143766 28.02734375 1.1328125 C28.02734375 1.4628125 28.02734375 1.7928125 28.02734375 2.1328125 C27.08375 2.34035156 26.14015625 2.54789063 25.16796875 2.76171875 C15.58379355 5.01077177 6.19320839 7.96694786 -0.97265625 15.1328125 C-0.36421875 14.87886719 0.24421875 14.62492187 0.87109375 14.36328125 C16.79367767 8.11132551 36.34734633 4.92960475 53.02734375 10.1328125 C54.02894531 10.38933594 55.03054688 10.64585938 56.0625 10.91015625 C68.19445263 14.21629071 76.99854006 20.54987565 86.02734375 29.1328125 C82.01627672 29.1328125 79.1420565 27.58988229 75.5 26.0078125 C72.83601861 24.91041316 72.83601861 24.91041316 69.02734375 25.1328125 C69.9709375 25.60589844 70.91453125 26.07898438 71.88671875 26.56640625 C80.59110647 31.01379544 88.46164892 35.88244736 96.02734375 42.1328125 C97.52394531 43.36451172 97.52394531 43.36451172 99.05078125 44.62109375 C110.66732407 54.53474641 119.67498701 66.77954716 125.02734375 81.1328125 C125.43855469 82.18726562 125.84976563 83.24171875 126.2734375 84.328125 C130.40783489 96.88868177 129.39736539 110.07247175 129.02734375 123.1328125 C128.36734375 122.8028125 127.70734375 122.4728125 127.02734375 122.1328125 C126.40234375 119.0703125 126.40234375 119.0703125 126.02734375 116.1328125 C125.95741211 116.72070557 125.88748047 117.30859863 125.81542969 117.91430664 C122.36180437 146.38450574 114.76407308 172.14416851 97.02734375 195.1328125 C95.76962526 191.35965702 96.47454886 189.48018214 97.40234375 185.6328125 C99.90394263 175.25234611 100.22715605 164.84137803 100.27734375 154.1953125 C100.29796875 153.10541016 100.31859375 152.01550781 100.33984375 150.89257812 C100.40410599 137.37340946 96.95394591 123.46772797 88.14453125 112.8671875 C79.02413859 104.37451417 67.59945626 100.73327247 55.33984375 100.8828125 C54.17606201 100.88861328 54.17606201 100.88861328 52.98876953 100.89453125 C46.20387571 100.99511028 39.68946298 101.81451329 33.02734375 103.1328125 C34.22634073 100.0496774 35.50434852 97.07001758 37.02734375 94.1328125 C35.6815625 94.82117188 35.6815625 94.82117188 34.30859375 95.5234375 C26.05244583 99.62358132 18.09824693 102.42467562 9.09765625 104.40625 C6.16980934 104.81525717 6.16980934 104.81525717 5.02734375 106.1328125 C-11.52249693 107.12352916 -26.59743058 106.06890882 -39.97265625 95.1328125 C-44.38539191 90.78094216 -48.52591303 86.30292733 -51.97265625 81.1328125 C-52.00182129 81.71546875 -52.03098633 82.298125 -52.06103516 82.8984375 C-53.19610969 103.30571398 -58.92759026 117.73761182 -68.38989258 135.73535156 C-74.39147503 147.31936955 -76.44556949 156.78644105 -76.16015625 169.8203125 C-76.14662109 171.01076172 -76.13308594 172.20121094 -76.11914062 173.42773438 C-76.08417453 176.32991988 -76.03510321 179.23111059 -75.97265625 182.1328125 C-80.40465603 178.1368771 -83.18146994 173.84966492 -86.03515625 168.6328125 C-86.4741626 167.83327148 -86.91316895 167.03373047 -87.36547852 166.20996094 C-90.84138419 159.7077044 -93.26288742 153.31565086 -94.97265625 146.1328125 C-95.26785156 145.10929688 -95.56304687 144.08578125 -95.8671875 143.03125 C-99.38230897 129.58069388 -98.97917049 114.82241771 -96.97265625 101.1328125 C-97.95435101 102.25560712 -98.93292923 103.38112723 -99.91015625 104.5078125 C-100.45542969 105.13429688 -101.00070313 105.76078125 -101.5625 106.40625 C-103.04224249 108.08913584 -103.04224249 108.08913584 -103.97265625 110.1328125 C-104.63265625 110.1328125 -105.29265625 110.1328125 -105.97265625 110.1328125 C-106.55564653 93.11813323 -104.19016667 78.30638027 -92.78515625 64.8203125 C-86.59077878 58.32249424 -79.56156328 53.74846794 -70.97265625 51.1328125 C-74.0233373 44.06077915 -78.05948664 42.09085142 -84.97265625 39.1328125 C-86.31047861 38.47520049 -87.64552368 37.81173912 -88.97265625 37.1328125 C-81.10157739 36.37919857 -75.64917574 37.89579051 -68.97265625 42.1328125 C-68.31265625 42.7928125 -67.65265625 43.4528125 -66.97265625 44.1328125 C-66.9883667 43.19429443 -66.9883667 43.19429443 -67.00439453 42.23681641 C-67.04588816 39.4105224 -67.07196098 36.58429239 -67.09765625 33.7578125 C-67.11441406 32.77296875 -67.13117188 31.788125 -67.1484375 30.7734375 C-67.15810547 29.36191406 -67.15810547 29.36191406 -67.16796875 27.921875 C-67.1836792 26.61790771 -67.1836792 26.61790771 -67.19970703 25.28759766 C-66.97265625 23.1328125 -66.97265625 23.1328125 -64.97265625 21.1328125 C-64.77349609 22.50566406 -64.77349609 22.50566406 -64.5703125 23.90625 C-64.39371094 25.09476563 -64.21710938 26.28328125 -64.03515625 27.5078125 C-63.86113281 28.69117187 -63.68710938 29.87453125 -63.5078125 31.09375 C-63.13802839 34.03983631 -63.13802839 34.03983631 -61.97265625 36.1328125 C-61.64394531 35.52695312 -61.31523437 34.92109375 -60.9765625 34.296875 C-54.64581446 23.14515081 -47.17283707 15.39618198 -35.97265625 9.1328125 C-35.32941406 8.74480469 -34.68617188 8.35679688 -34.0234375 7.95703125 C-24.08746002 2.37477926 -11.26067071 0.0106412 0 0 Z " fill="#324B5E" transform="translate(243.97265625,26.8671875)"/>
<path d="M0 0 C-0.56005894 3.55957181 -1.4417926 6.08220793 -3.35546875 9.125 C-10.49289856 21.20180161 -12.07693741 29.38050168 -9.52929688 43.08007812 C-8.76538085 47.29430121 -8.19722258 51.53087575 -7.60961914 55.77270508 C-7.11543014 59.31866677 -6.59537405 62.86025431 -6.07421875 66.40234375 C-4.70118393 75.9188094 -3.57258378 85.46250333 -2.43896484 95.00976562 C-2.27579815 96.38282225 -2.11255036 97.75586924 -1.94921875 99.12890625 C-1.86978027 99.79701324 -1.7903418 100.46512024 -1.70849609 101.1534729 C-0.83359939 108.46582997 0.13291331 115.76609624 1.13696289 123.06176758 C1.25160889 123.91279053 1.36625488 124.76381348 1.484375 125.640625 C1.58459961 126.36797852 1.68482422 127.09533203 1.78808594 127.84472656 C2.02372021 130.24124655 2.03481637 132.5934501 2 135 C-9.2119656 137.11815079 -20.19483149 137.30925427 -31.56811523 137.26074219 C-34.56058959 137.25000685 -37.55246548 137.26070052 -40.54492188 137.2734375 C-50.5533563 137.27966301 -60.16563216 137.05169893 -70 135 C-69.49002972 125.02704656 -68.46557606 115.24518752 -67.01629639 105.36923218 C-66.44132335 101.44469701 -65.88645173 97.51732733 -65.33203125 93.58984375 C-65.21899658 92.79038834 -65.10596191 91.99093292 -64.98950195 91.16725159 C-63.65518218 81.65571376 -62.51221269 72.1221013 -61.39282227 62.58325195 C-60.66433755 56.3917183 -59.90652688 50.20971156 -59.015625 44.0390625 C-58.86496582 42.97856689 -58.71430664 41.91807129 -58.55908203 40.82543945 C-58.28022965 38.88994047 -57.99045645 36.95596605 -57.68701172 35.02416992 C-56.37458223 25.83628968 -59.99650218 19.77570724 -64.125 11.75 C-65.04792529 9.95499929 -65.9673819 8.15820947 -66.8828125 6.359375 C-67.28902832 5.57014648 -67.69524414 4.78091797 -68.11376953 3.96777344 C-69 2 -69 2 -69 0 C-44.56330535 -9.01492912 -24.50358123 -10.14685742 0 0 Z " fill="#FE7159" transform="translate(290,375)"/>
<path d="M0 0 C0.21914062 0.83402344 0.43828125 1.66804688 0.6640625 2.52734375 C2.77004589 10.00101651 5.19928641 15.89958103 10 22 C10.69996094 22.96099609 10.69996094 22.96099609 11.4140625 23.94140625 C22.93473351 38.56379638 44.24731762 50.03755428 62 55 C66.83292436 54.73961906 71.00088967 52.95548462 75.375 51 C76.0661792 50.69239746 76.7573584 50.38479492 77.46948242 50.06787109 C98.59045268 40.46373968 117.01550713 28.21383309 126 6 C126.70756254 2.72898624 126.70756254 2.72898624 127 0 C133.5999887 2.68888428 138.08134603 8.69129435 141 15 C147.46015685 34.27751983 143.60832998 53.8095973 139 73 C138.57460938 74.91619141 138.57460938 74.91619141 138.140625 76.87109375 C136.74992188 82.93610458 134.77239021 88.42707348 132 94 C129.35245591 91.56232221 127.50345868 88.85472033 125.5 85.875 C113.15021198 68.77529351 93.90290159 62.73896562 74.0625 58.625 C54.16951413 55.65958596 30.31155979 62.09173055 14 74 C6.61040887 79.70149996 1.58001781 85.8863923 -3 94 C-6.11051342 92.44474329 -6.22564742 90.0588968 -7.3125 86.8125 C-9.50521064 80.15085987 -11.19035091 73.39751721 -12.75 66.5625 C-12.96052002 65.63993408 -13.17104004 64.71736816 -13.38793945 63.7668457 C-15.44083921 54.47207526 -16.20253549 45.62976827 -16.25 36.125 C-16.270625 35.10019531 -16.29125 34.07539063 -16.3125 33.01953125 C-16.36335705 23.0134072 -14.37632153 13.93648531 -8 6 C-1.94871795 0 -1.94871795 0 0 0 Z " fill="#FEFEFD" transform="translate(192,310)"/>
<path d="M0 0 C-0.59410938 3.63407665 -1.59026973 6.54674371 -3.25 9.828125 C-3.91515625 11.15070313 -3.91515625 11.15070313 -4.59375 12.5 C-5.0578125 13.4075 -5.521875 14.315 -6 15.25 C-6.4640625 16.17296875 -6.928125 17.0959375 -7.40625 18.046875 C-10.84561012 24.84561012 -10.84561012 24.84561012 -12 26 C-13.41225046 26.0928726 -14.82908934 26.11746772 -16.24438477 26.11352539 C-17.14524307 26.11344986 -18.04610138 26.11337433 -18.97425842 26.11329651 C-19.95341721 26.10813522 -20.93257599 26.10297394 -21.94140625 26.09765625 C-22.93881332 26.0962413 -23.9362204 26.09482635 -24.96385193 26.09336853 C-28.16343124 26.08775114 -31.36294169 26.07519571 -34.5625 26.0625 C-36.72591045 26.05748724 -38.88932199 26.05292395 -41.05273438 26.04882812 C-46.36851325 26.03777607 -51.68425171 26.02102104 -57 26 C-59.00645249 22.04490505 -61.00406136 18.08540979 -63 14.125 C-63.57234375 12.99707031 -64.1446875 11.86914062 -64.734375 10.70703125 C-65.54648438 9.09248047 -65.54648438 9.09248047 -66.375 7.4453125 C-66.87773437 6.45031738 -67.38046875 5.45532227 -67.8984375 4.43017578 C-69 2 -69 2 -69 0 C-44.56330535 -9.01492912 -24.50358123 -10.14685742 0 0 Z " fill="#F05540" transform="translate(290,375)"/>
<path d="M0 0 C0.70253906 0.71542969 1.40507812 1.43085938 2.12890625 2.16796875 C16.82458642 16.83269978 34.58747408 29.17095082 56.0625 29.25 C75.88022694 29.20137014 92.45719041 20.07751804 106.51953125 6.58203125 C107.87031132 5.20691281 109.20439712 3.81493588 110.51171875 2.3984375 C112 1 112 1 114 1 C115.44449493 3.29419784 116.02492659 4.61523567 115.84765625 7.3515625 C112.79546626 16.88789806 97.40532261 25.3379636 89 30 C73.27700678 37.67458513 53.96520381 40.36149908 36.875 35.5 C33.97265625 34.390625 33.97265625 34.390625 31 33 C30.4004248 32.72091797 29.80084961 32.44183594 29.18310547 32.15429688 C16.5361148 26.14801242 6.68120929 18.10213143 -3 8 C-1.125 1.125 -1.125 1.125 0 0 Z " fill="#F8B54C" transform="translate(199,280)"/>
<path d="M0 0 C2.125 0.9375 2.125 0.9375 4 2 C4 2.33 4 2.66 4 3 C-1.445 4.485 -1.445 4.485 -7 6 C-2.25 1.125 -2.25 1.125 0 0 Z " fill="#7CBF99" transform="translate(248,37)"/>
<path d="M0 0 C2.97 0.33 5.94 0.66 9 1 C8.01 1.495 8.01 1.495 7 2 C6.67 2.66 6.34 3.32 6 4 C4.02 3.01 2.04 2.02 0 1 C0 0.67 0 0.34 0 0 Z " fill="#72B092" transform="translate(311,51)"/>
</svg>
