<svg xmlns="http://www.w3.org/2000/svg" width="141.712" height="30" viewBox="0 0 141.712 30">
  <g id="logo" transform="translate(-16 -16)">
    <path id="Path_1" data-name="Path 1" d="M69.127,30.494A4.031,4.031,0,0,1,70.2,32.025c.056.149.056.149.119.207l.075-.114a5.814,5.814,0,0,1,2-1.911l.117-.067a4.957,4.957,0,0,1,3.509-.357,3.832,3.832,0,0,1,2.231,1.822,6.884,6.884,0,0,1,.6,3.137q0,.13,0,.261,0,.279,0,.559,0,.442,0,.885,0,1.258.007,2.515,0,.7,0,1.391,0,.367,0,.735,0,.346,0,.691,0,.126,0,.253a3.371,3.371,0,0,0,.476,1.915,1.791,1.791,0,0,0,.957.483V45H73.378V44.43l.235-.074a1.62,1.62,0,0,0,.942-.915,3.16,3.16,0,0,0,.195-1.164c0-.035,0-.07,0-.107q0-.176,0-.351,0-.126,0-.253,0-.343,0-.686,0-.215,0-.429,0-.75,0-1.5,0-.7,0-1.394,0-.6,0-1.2,0-.357,0-.715,0-.337,0-.674,0-.123,0-.246a3.333,3.333,0,0,0-.68-2.5,1.9,1.9,0,0,0-1.445-.243A3.311,3.311,0,0,0,70.882,33.5l-.061.089a2.182,2.182,0,0,0-.2,1.239q0,.13,0,.259,0,.35.005.7c0,.245,0,.49,0,.735q0,.617.009,1.235.006.712.01,1.425,0,.687.009,1.374,0,.292,0,.583,0,.344.006.688,0,.126,0,.251a2.752,2.752,0,0,0,.536,1.93,1.735,1.735,0,0,0,.853.417V45H65.137V44.43l.236-.074a1.62,1.62,0,0,0,.942-.915,3.159,3.159,0,0,0,.195-1.164c0-.053,0-.053,0-.107q0-.176,0-.351,0-.126,0-.253,0-.343,0-.686,0-.215,0-.429,0-.75,0-1.5,0-.7,0-1.394,0-.6,0-1.2,0-.357,0-.715,0-.337,0-.674,0-.123,0-.246a3.339,3.339,0,0,0-.577-2.4,1.58,1.58,0,0,0-1.229-.394,2.621,2.621,0,0,0-1.683,1.014,2.054,2.054,0,0,0-.58,1.236c0,.036,0,.073,0,.11q0,.184,0,.368v.263q0,.358,0,.717,0,.224,0,.448,0,.7,0,1.4,0,.809,0,1.617,0,.625,0,1.251,0,.373,0,.747,0,.352,0,.7,0,.129,0,.257a2.72,2.72,0,0,0,.6,2.01,1.512,1.512,0,0,0,.782.353V45H56.895V44.43l.259-.074a1.483,1.483,0,0,0,.867-.71,4.61,4.61,0,0,0,.294-2.028q0-.126,0-.252,0-.34,0-.68,0-.213,0-.426,0-.745,0-1.489,0-.692,0-1.384,0-.6,0-1.192,0-.355,0-.71,0-.334,0-.668,0-.122,0-.244a3.117,3.117,0,0,0-.624-2.34,1.6,1.6,0,0,0-.8-.377v-.518l.228-.016a7.512,7.512,0,0,0,4.514-1.447c.2-.138.2-.138.768-.138l.047,2.119.377-.518a4.642,4.642,0,0,1,3.094-1.685A4.364,4.364,0,0,1,69.127,30.494Z" transform="translate(-16.358 -5.447)" fill="#46d7ac"/>
    <path id="Path_2" data-name="Path 2" d="M109.954,30.989a8.635,8.635,0,0,1,2.651,5.956,9.029,9.029,0,0,1-1.927,6.11l-.083.1a5.378,5.378,0,0,1-3.651,1.811,4.872,4.872,0,0,1-3.707-1.112l-.047-.047q-.007,1.071-.01,2.142,0,.5,0,.995,0,.481,0,.961,0,.183,0,.366a3.105,3.105,0,0,0,.564,2.262,1.829,1.829,0,0,0,.775.386v.518H97.633v-.518l.212-.053a1.437,1.437,0,0,0,.856-.677,2.429,2.429,0,0,0,.3-1.147c0-.055,0-.111,0-.168s0-.122,0-.184v-.2q0-.27,0-.539,0-.291,0-.582,0-.7,0-1.4,0-.331,0-.662,0-1.1,0-2.2,0-.286,0-.571c0-.047,0-.095,0-.143q0-1.149,0-2.3,0-1.18,0-2.361,0-.663,0-1.325,0-.564,0-1.129,0-.288,0-.575,0-.264,0-.528c0-.093,0-.186,0-.279a2.448,2.448,0,0,0-.574-1.665,1.7,1.7,0,0,0-.817-.384v-.518l.221-.014a8.065,8.065,0,0,0,4.583-1.493c.141-.094.141-.094.706-.094.016.435.031.87.047,1.319l.194-.206A4.762,4.762,0,0,1,109.954,30.989Zm-5.21,1.045-.124.054a3.483,3.483,0,0,0-.959.747l-.07.072a1.688,1.688,0,0,0-.516,1.4c0,.079,0,.158,0,.237,0,.213,0,.425,0,.637,0,.178,0,.356,0,.534q0,.631,0,1.261c0,.432,0,.865,0,1.3q0,.559,0,1.118c0,.222,0,.444,0,.666s0,.417,0,.626c0,.076,0,.152,0,.229a1.187,1.187,0,0,0,.267.931,3.1,3.1,0,0,0,2.13.955,2.162,2.162,0,0,0,.88-.165l.127-.056a2.773,2.773,0,0,0,1.192-1.216l.073-.127a8.326,8.326,0,0,0,.775-4.206c0-.062,0-.062-.005-.125a6.8,6.8,0,0,0-1.5-4.49,2.165,2.165,0,0,0-1.7-.527A1.741,1.741,0,0,0,104.744,32.034Z" transform="translate(-32.653 -5.437)" fill="#46d7ac"/>
    <path id="Path_3" data-name="Path 3" d="M213.806,30.222q.109.094.215.191l.107.095a3.864,3.864,0,0,1,1.177,2.656,2.73,2.73,0,0,1-.631,2.091,2.25,2.25,0,0,1-1.674.585,2.218,2.218,0,0,1-1.493-.708,2.864,2.864,0,0,1-.5-2.082,2.084,2.084,0,0,1,.706-1.21c.107-.1.107-.1.1-.241a1.186,1.186,0,0,0-.578-.683,1.244,1.244,0,0,0-.985.062,2.431,2.431,0,0,0-.377.283l-.092.079a5.082,5.082,0,0,0-1.453,2.93c-.006.187-.005.374,0,.561,0,.084,0,.169,0,.253,0,.226,0,.452,0,.678s0,.476,0,.714q0,.6,0,1.2,0,.69,0,1.38,0,.668,0,1.335c0,.188,0,.377,0,.565q0,.333,0,.666c0,.081,0,.162,0,.243a2.963,2.963,0,0,0,.581,2.068,1.834,1.834,0,0,0,.811.423v.518H204.6a5.574,5.574,0,0,1-.131-.571c-.005-.033-.011-.066-.017-.1s-.011-.068-.017-.1-.013-.072-.019-.109c-.02-.114-.038-.227-.058-.341l-.04-.233q-.049-.284-.1-.568l-.1.127-.128.167-.064.084a4.259,4.259,0,0,1-2.805,1.722,4.679,4.679,0,0,1-3.531-.89,4.824,4.824,0,0,1-1.606-3.282c-.019-.284-.017-.568-.017-.852,0-.071,0-.141,0-.212,0-.151,0-.3,0-.454q0-.359,0-.719,0-1.021-.007-2.043,0-.565,0-1.13,0-.3,0-.6,0-.281,0-.562c0-.068,0-.136,0-.2a2.894,2.894,0,0,0-.5-1.814,1.79,1.79,0,0,0-.883-.456v-.518l.254-.014a7.232,7.232,0,0,0,4.514-1.451.6.6,0,0,1,.451-.1l.166.005.126.007v.169q0,1.984.011,3.969c0,.163,0,.326,0,.489,0,.033,0,.065,0,.1q0,.787,0,1.574,0,.809,0,1.617,0,.454,0,.907,0,.428,0,.855c0,.1,0,.208,0,.313a4.311,4.311,0,0,0,.335,2.092l.05.095a1.64,1.64,0,0,0,1.04.8,1.889,1.889,0,0,0,1.374-.216,4.089,4.089,0,0,0,.471-.424l.079-.077a4,4,0,0,0,.581-.912l.075-.131a2.266,2.266,0,0,0,.085-.9c0-.071,0-.142,0-.213q0-.289,0-.577t0-.606q0-.509,0-1.018,0-.587,0-1.173,0-.505,0-1.01,0-.3,0-.6,0-.283,0-.567,0-.1,0-.207a3.165,3.165,0,0,0-.475-1.793,1.849,1.849,0,0,0-.91-.483v-.518l.254-.014a7.891,7.891,0,0,0,4.645-1.54h.612c.016.42.031.839.047,1.272l.183-.235A3.91,3.91,0,0,1,213.806,30.222Z" transform="translate(-71.428 -5.371)" fill="#46d7ac"/>
    <path id="Path_4" data-name="Path 4" d="M241.626,31.114a7.009,7.009,0,0,1,1.763,4.8q0,.115-.005.23c-.371.158-.744.3-1.124.44l-.159.057-.339.122-.919.331-.1.034q-1.008.364-2.012.737-1.959.724-3.923,1.433a3.032,3.032,0,0,0,.112.66c.013.04.026.08.04.122s.028.082.043.125l.044.131a3.554,3.554,0,0,0,1.778,2.136,3.366,3.366,0,0,0,2.5.076,6.174,6.174,0,0,0,2.655-2.022l.079-.1a7.7,7.7,0,0,0,.657-1.077c.112.092.221.186.329.283l.128.114.131.122.125.115a.3.3,0,0,1,.088.254,2.985,2.985,0,0,1-.228.514l-.056.1a12.1,12.1,0,0,1-.753,1.178l-.061.087a6.978,6.978,0,0,1-4.273,2.9,6.108,6.108,0,0,1-4.508-1.051c-.117-.092-.23-.186-.342-.284l-.115-.1A8.155,8.155,0,0,1,230.554,38a8.7,8.7,0,0,1,1.935-6.343q.1-.113.2-.225l.095-.107a6.407,6.407,0,0,1,4.456-1.822A5.969,5.969,0,0,1,241.626,31.114Zm-5.449.224-.093.079A5.246,5.246,0,0,0,234.8,34.44c-.007.043-.014.085-.022.129a14.251,14.251,0,0,0-.163,2.408c0,.089,0,.177,0,.266q0,.32,0,.64c.347-.1.686-.215,1.025-.34l.159-.058.508-.185.349-.127q1.336-.487,2.668-.985a7.821,7.821,0,0,0-.887-4.908,1.586,1.586,0,0,0-1.037-.437A1.91,1.91,0,0,0,236.178,31.338Z" transform="translate(-85.814 -5.401)" fill="#46d7ac"/>
    <path id="Path_5" data-name="Path 5" d="M148.609,31.118a6.955,6.955,0,0,1,1.763,4.771c0,.085,0,.171-.006.256-.371.158-.744.3-1.123.44l-.159.057-.339.122-.918.331-.1.034q-1.015.367-2.028.743-1.473.545-2.952,1.074l-.142.051-.262.094c-.186.066-.371.134-.553.209a4.255,4.255,0,0,0,1.38,2.776,3.257,3.257,0,0,0,2.44.65,5.589,5.589,0,0,0,3.356-2.2l.079-.1a7.69,7.69,0,0,0,.656-1.077c.112.092.221.186.33.283l.128.114.131.122.125.115a.3.3,0,0,1,.09.25,3.535,3.535,0,0,1-.265.583l-.064.12a9.438,9.438,0,0,1-1.463,1.993l-.071.076a6.416,6.416,0,0,1-4.31,2.1,6.015,6.015,0,0,1-4.1-1.469l-.12-.1a8.215,8.215,0,0,1-2.59-5.65,8.656,8.656,0,0,1,1.816-6.069l.065-.078a6.362,6.362,0,0,1,4.3-2.2A6.16,6.16,0,0,1,148.609,31.118Zm-5.449.224-.094.079a3.12,3.12,0,0,0-.66.957l-.077.151a9.382,9.382,0,0,0-.677,2.91c-.007.065-.007.065-.015.13a13.353,13.353,0,0,0-.035,1.412c0,.088,0,.176,0,.265q0,.321,0,.642c.359-.1.71-.224,1.061-.352l.169-.061.449-.163.277-.1c.92-.334,1.838-.671,2.753-1.019.094-2.634.094-2.634-.946-4.96a1.5,1.5,0,0,0-1.085-.375A1.864,1.864,0,0,0,143.16,31.342Z" transform="translate(-48.605 -5.405)" fill="#46d7ac"/>
    <path id="Path_6" data-name="Path 6" d="M21.633,16v.224l-.1.051a3.337,3.337,0,0,0-1.74,1.991A4.45,4.45,0,0,0,20.06,21.6c1.055,2,3.361,2.828,5.33,3.649,3.343,1.394,3.343,1.394,4.5,2.531.05.049.1.1.153.146a4.906,4.906,0,0,1,.982,1.339l.031.059a6.553,6.553,0,0,1,.252,4.807,7.281,7.281,0,0,1-1.337,2.449l-.045.055a7.238,7.238,0,0,1-1.137,1.127l-.1.084a8.428,8.428,0,0,1-1.4.906l-.085.045a8.753,8.753,0,0,1-1.321.552l-.075.025a2.794,2.794,0,0,1-.755.176.488.488,0,0,1,0-.192,1.169,1.169,0,0,1,.2-.138l.124-.074.062-.038a3.346,3.346,0,0,0,.411-.325l.059-.051a5.436,5.436,0,0,0,1.41-3.527,5.368,5.368,0,0,0-.256-2.14L27.04,33a5.292,5.292,0,0,0-2.831-2.676l-.318-.155c-.49-.239-.986-.457-1.489-.667-.724-.3-1.446-.614-2.144-.975l-.2-.1a7.227,7.227,0,0,1-2.385-1.816l-.072-.088a6.107,6.107,0,0,1-1.238-2.915l-.013-.075a6.457,6.457,0,0,1,1-4.656,8.285,8.285,0,0,1,.738-.891l.046-.048C18.89,17.136,20.472,15.933,21.633,16Z" transform="translate(-0.105 0)" fill="#46d7ac"/>
    <path id="Path_7" data-name="Path 7" d="M34.322,17.392l.088.028A2.6,2.6,0,0,1,35.8,18.74a2.669,2.669,0,0,1-.583,3.124l-.06.064a2.55,2.55,0,0,1-1.8.615,2.719,2.719,0,0,1-1.943-.87,2.621,2.621,0,0,1-.678-1.838,2.851,2.851,0,0,1,.909-1.938,2.957,2.957,0,0,1,.95-.537l.088-.031A2.82,2.82,0,0,1,34.322,17.392Z" transform="translate(-5.895 -0.494)" fill="#46d7ac"/>
    <path id="Path_8" data-name="Path 8" d="M20.245,43.334a2.67,2.67,0,0,1,.994,1.7,2.839,2.839,0,0,1-.482,2.043A2.676,2.676,0,0,1,19.035,48.1a2.9,2.9,0,0,1-2.208-.675A2.683,2.683,0,0,1,16,45.59a2.64,2.64,0,0,1,.652-1.878c.058-.061.118-.12.178-.18l.067-.071A2.688,2.688,0,0,1,20.245,43.334Z" transform="translate(0 -10.725)" fill="#46d7ac"/>
    <path id="Path_9" data-name="Path 9" d="M179.665,29.48l.283,0a5.064,5.064,0,0,1,3.527,1.467,3.686,3.686,0,0,1,1.1,2.657,2.121,2.121,0,0,1-.631,1.5,2.226,2.226,0,0,1-1.638.613,2.326,2.326,0,0,1-1.644-.862,2.38,2.38,0,0,1-.388-1.693,2.328,2.328,0,0,1,.518-1.083l.106-.138c.071-.084.145-.161.224-.238a1.2,1.2,0,0,0-.644-.742,1.8,1.8,0,0,0-1.286.13,2.06,2.06,0,0,0-1.025,1.238,2.284,2.284,0,0,0,.275,1.74,7.616,7.616,0,0,0,2.636,2.067l.35.2.088.051c1.5.876,3.2,1.906,3.724,3.675a3.665,3.665,0,0,1-.253,2.685,5.141,5.141,0,0,1-3.289,2.079,9.04,9.04,0,0,1-1.094.2l-.1.013a10.227,10.227,0,0,1-3.53-.155l-.128-.031A3.92,3.92,0,0,1,174.4,43.4a1.691,1.691,0,0,1-.216-1.279,1.557,1.557,0,0,1,.72-.949,1.148,1.148,0,0,1,.518-.094l.037.07a4.352,4.352,0,0,0,2.6,2.332,3.117,3.117,0,0,0,2.176-.113,2.109,2.109,0,0,0,.95-1.191,2.27,2.27,0,0,0-.286-1.693,7.291,7.291,0,0,0-2.533-1.855,15.62,15.62,0,0,1-2.569-1.7l-.1-.081a4.57,4.57,0,0,1-.7-.766l-.089-.111a4.077,4.077,0,0,1-.747-2.9,3.641,3.641,0,0,1,1.118-2.024l.083-.093a5.5,5.5,0,0,1,3.261-1.414l.091-.013A7.459,7.459,0,0,1,179.665,29.48Z" transform="translate(-63.253 -5.39)" fill="#46d7ac"/>
    <path id="Path_10" data-name="Path 10" d="M129.539,17l.166,0,.126.006v.133q0,3.9.008,7.792,0,.468,0,.936v.188q0,1.508,0,3.016,0,1.547,0,3.095,0,.955,0,1.909,0,.655,0,1.31,0,.378,0,.755,0,.346,0,.692v.25a2.7,2.7,0,0,0,.529,1.87,1.853,1.853,0,0,0,.814.426v.565H124.32v-.565l.209-.05a1.458,1.458,0,0,0,.842-.639,3.139,3.139,0,0,0,.339-1.585c0-.071,0-.142,0-.212,0-.193,0-.386,0-.578q0-.313,0-.626,0-.612,0-1.224,0-.5,0-1c0-.047,0-.095,0-.143v-.288q0-1.35,0-2.7,0-1.157,0-2.315,0-1.346,0-2.691c0-.1,0-.192,0-.287v-.143q0-.5,0-.993,0-.606,0-1.212,0-.309,0-.617c0-.189,0-.378,0-.566,0-.068,0-.136,0-.2a2.41,2.41,0,0,0-.589-1.806,1.309,1.309,0,0,0-.8-.375v-.565l.281-.023a12.766,12.766,0,0,0,2.262-.354l.112-.03a5.5,5.5,0,0,0,2.007-.991A.7.7,0,0,1,129.539,17Z" transform="translate(-43.328 -0.401)" fill="#46d7ac"/>
    <path id="Path_11" data-name="Path 11" d="M48.866,29.8l.155,0,.119,0c0,.027,0,.055,0,.083q0,2.437.011,4.874l0,.586c0,.039,0,.078,0,.118q0,.943,0,1.886,0,.968,0,1.936,0,.6,0,1.194,0,.41,0,.82,0,.236,0,.472,0,.257,0,.514v.149a2.46,2.46,0,0,0,.632,1.733,1.847,1.847,0,0,0,.753.33v.565H43.629V44.5l.212-.053a1.566,1.566,0,0,0,.918-.748,4.02,4.02,0,0,0,.3-1.911q0-.131,0-.261,0-.353,0-.706,0-.3,0-.591,0-.7,0-1.4,0-.718,0-1.436,0-.618,0-1.237,0-.368,0-.737,0-.347,0-.693,0-.126,0-.253a3.068,3.068,0,0,0-.6-2.176,1.835,1.835,0,0,0-.836-.377v-.518l.225-.012c1.471-.091,3.5-.346,4.583-1.506A.631.631,0,0,1,48.866,29.8Z" transform="translate(-11.052 -5.521)" fill="#46d7ac"/>
    <path id="Path_12" data-name="Path 12" d="M166.138,29.8l.154,0,.116,0c0,.027,0,.054,0,.082q0,2.417.01,4.834,0,.291,0,.581v.117q0,.935,0,1.87,0,.96,0,1.921,0,.592,0,1.184,0,.407,0,.813,0,.234,0,.468a3.445,3.445,0,0,0,.556,2.394,1.952,1.952,0,0,0,.83.43v.565H160.9V44.5l.218-.059a1.553,1.553,0,0,0,.935-.771,3.808,3.808,0,0,0,.272-1.753c0-.09,0-.179,0-.269q0-.363,0-.727,0-.3,0-.608,0-.718,0-1.436,0-.739,0-1.477,0-.636,0-1.272,0-.379,0-.758,0-.357,0-.713c0-.087,0-.174,0-.261a2.862,2.862,0,0,0-.6-2.093,1.611,1.611,0,0,0-.833-.38v-.518l.231-.014a7.4,7.4,0,0,0,4.5-1.446A.624.624,0,0,1,166.138,29.8Z" transform="translate(-57.959 -5.519)" fill="#46d7ac"/>
    <path id="Path_13" data-name="Path 13" d="M49.374,19.809a2.563,2.563,0,0,1,.807,1.807A2.3,2.3,0,0,1,48.423,23.9l-.086.027a2.554,2.554,0,0,1-1.786-.316,2.465,2.465,0,0,1-1.03-1.5,2.634,2.634,0,0,1-.032-.493c0-.053,0-.053,0-.106a1.964,1.964,0,0,1,.155-.771l.05-.12a2.421,2.421,0,0,1,1.421-1.249A2.508,2.508,0,0,1,49.374,19.809Z" transform="translate(-11.795 -1.304)" fill="#46d7ac"/>
    <path id="Path_14" data-name="Path 14" d="M166.716,19.893a2.389,2.389,0,0,1,.674,1.142l.028.086a2.557,2.557,0,0,1-.316,1.786,2.466,2.466,0,0,1-1.5,1.03,2.632,2.632,0,0,1-.493.033h-.106a2.358,2.358,0,0,1-1.543-.638,2.559,2.559,0,0,1-.7-1.851,2.4,2.4,0,0,1,.8-1.644A2.438,2.438,0,0,1,166.716,19.893Z" transform="translate(-58.706 -1.315)" fill="#46d7ac"/>
  </g>
</svg>
