<svg xmlns="http://www.w3.org/2000/svg" width="230" height="48.69" viewBox="0 0 230 48.69">
  <g id="logo" transform="translate(-16 -16)">
    <path id="Path_1" data-name="Path 1" d="M76.747,31.04a6.542,6.542,0,0,1,1.739,2.485c.091.242.091.242.193.336l.121-.185a9.436,9.436,0,0,1,3.242-3.1l.19-.109a8.045,8.045,0,0,1,5.7-.579,6.219,6.219,0,0,1,3.621,2.957,11.172,11.172,0,0,1,.977,5.091q0,.212,0,.423,0,.453,0,.907,0,.718,0,1.436.007,2.041.011,4.083,0,1.129.007,2.258,0,.6,0,1.193,0,.561,0,1.122,0,.205,0,.41a5.471,5.471,0,0,0,.773,3.109,2.907,2.907,0,0,0,1.553.784v.917H83.648v-.917l.382-.119a2.63,2.63,0,0,0,1.529-1.486,5.13,5.13,0,0,0,.316-1.89c0-.057,0-.114,0-.173q0-.285,0-.57,0-.205,0-.41,0-.556,0-1.113,0-.348,0-.7,0-1.217,0-2.433,0-1.131,0-2.262,0-.973,0-1.947,0-.58,0-1.16,0-.547,0-1.093,0-.2,0-.4c0-1.465-.026-2.956-1.1-4.065a3.086,3.086,0,0,0-2.346-.394A5.373,5.373,0,0,0,79.6,35.924l-.1.145a3.542,3.542,0,0,0-.323,2.011q0,.21,0,.421,0,.569.008,1.137c0,.4.005.8.007,1.193q.005,1,.015,2,.01,1.156.015,2.312.005,1.115.014,2.23,0,.473.006.946,0,.558.009,1.116,0,.2,0,.408a4.466,4.466,0,0,0,.871,3.132,2.816,2.816,0,0,0,1.385.677v.917H70.271v-.917l.382-.119a2.629,2.629,0,0,0,1.529-1.486,5.128,5.128,0,0,0,.316-1.89c0-.086,0-.086,0-.173q0-.285,0-.57,0-.205,0-.41,0-.556,0-1.113,0-.348,0-.7,0-1.217,0-2.433,0-1.131,0-2.262,0-.973,0-1.947,0-.58,0-1.16,0-.547,0-1.093,0-.2,0-.4a5.418,5.418,0,0,0-.937-3.893,2.564,2.564,0,0,0-1.994-.64,4.254,4.254,0,0,0-2.731,1.646,3.334,3.334,0,0,0-.941,2.006c0,.059,0,.118,0,.179q0,.3,0,.6,0,.214,0,.427,0,.582,0,1.163,0,.364,0,.727,0,1.138,0,2.276,0,1.313,0,2.625,0,1.015,0,2.03,0,.606,0,1.212,0,.571,0,1.142,0,.209,0,.417a4.414,4.414,0,0,0,.977,3.263,2.453,2.453,0,0,0,1.268.573v.917H56.895v-.917l.42-.119a2.407,2.407,0,0,0,1.407-1.153,7.481,7.481,0,0,0,.477-3.292q0-.2,0-.409,0-.552,0-1.1,0-.346,0-.691,0-1.208,0-2.417,0-1.123,0-2.246,0-.967,0-1.934,0-.576,0-1.152,0-.543,0-1.085,0-.2,0-.4c0-1.344-.008-2.781-1.013-3.8a2.6,2.6,0,0,0-1.3-.611v-.841l.37-.025c2.522-.181,5.36-.6,7.327-2.349.33-.225.33-.225,1.247-.225l.076,3.44.612-.841a7.534,7.534,0,0,1,5.022-2.734A7.082,7.082,0,0,1,76.747,31.04Z" transform="translate(-1.071 -0.357)" fill="#46d7ac"/>
    <path id="Path_2" data-name="Path 2" d="M117.63,31.858a14.015,14.015,0,0,1,4.3,9.666,14.654,14.654,0,0,1-3.128,9.916l-.135.164a8.729,8.729,0,0,1-5.926,2.939,7.908,7.908,0,0,1-6.016-1.8l-.076-.076q-.012,1.738-.017,3.477,0,.807-.007,1.614,0,.78-.006,1.56l0,.593a5.04,5.04,0,0,0,.915,3.672,2.968,2.968,0,0,0,1.257.626v.841H97.633v-.841l.344-.086a2.332,2.332,0,0,0,1.39-1.1,3.943,3.943,0,0,0,.493-1.862c0-.09,0-.18,0-.273s0-.2,0-.3,0-.212,0-.319q0-.438,0-.875,0-.472,0-.944,0-1.14,0-2.28,0-.537,0-1.074,0-1.786,0-3.573,0-.463,0-.927c0-.077,0-.154,0-.233q0-1.865.005-3.73,0-1.916,0-3.832,0-1.075,0-2.151,0-.916,0-1.832,0-.467,0-.934,0-.428,0-.857c0-.151,0-.3,0-.453a3.974,3.974,0,0,0-.931-2.7,2.756,2.756,0,0,0-1.325-.623v-.841l.359-.023a13.089,13.089,0,0,0,7.438-2.423c.229-.153.229-.153,1.146-.153.025.706.051,1.413.077,2.14l.316-.334C109.936,28.654,114.664,29.127,117.63,31.858Zm-8.456,1.7-.2.088a5.654,5.654,0,0,0-1.557,1.212l-.114.116a2.74,2.74,0,0,0-.837,2.268c0,.128,0,.256,0,.385,0,.345,0,.69,0,1.035,0,.289,0,.578,0,.867q0,1.024,0,2.047c0,.7,0,1.4,0,2.105q-.007.907,0,1.815c0,.36,0,.72,0,1.081,0,.339,0,.677,0,1.016,0,.124,0,.247,0,.371a1.926,1.926,0,0,0,.433,1.511,5.027,5.027,0,0,0,3.457,1.55,3.51,3.51,0,0,0,1.429-.268l.205-.09a4.5,4.5,0,0,0,1.935-1.973l.118-.206a13.514,13.514,0,0,0,1.257-6.826c0-.1,0-.1-.009-.2-.131-2.525-.581-5.413-2.436-7.288a3.514,3.514,0,0,0-2.759-.855A2.825,2.825,0,0,0,109.175,33.554Z" transform="translate(-2.138 -0.356)" fill="#46d7ac"/>
    <path id="Path_3" data-name="Path 3" d="M225.79,30.717q.177.153.35.311l.174.154a6.272,6.272,0,0,1,1.911,4.311,4.432,4.432,0,0,1-1.024,3.394,3.652,3.652,0,0,1-2.717.95,3.6,3.6,0,0,1-2.424-1.149,4.649,4.649,0,0,1-.812-3.379,3.382,3.382,0,0,1,1.146-1.963c.174-.165.174-.165.168-.392a1.925,1.925,0,0,0-.939-1.108,2.019,2.019,0,0,0-1.6.1,3.942,3.942,0,0,0-.612.459l-.149.128a8.248,8.248,0,0,0-2.358,4.755c-.01.3-.009.607,0,.911,0,.137,0,.274,0,.41,0,.367,0,.733,0,1.1,0,.387,0,.773,0,1.159q0,.973.006,1.945.006,1.12,0,2.24,0,1.084,0,2.167c0,.306,0,.611,0,.917q0,.541,0,1.081c0,.131,0,.262,0,.394a4.808,4.808,0,0,0,.944,3.356,2.976,2.976,0,0,0,1.317.686v.841h-8.332a9.056,9.056,0,0,1-.212-.926c-.009-.053-.019-.107-.028-.162s-.019-.111-.027-.168-.02-.117-.03-.177c-.032-.184-.062-.369-.094-.554l-.064-.378q-.079-.46-.156-.921l-.159.206-.207.271-.1.136a6.912,6.912,0,0,1-4.553,2.795,7.594,7.594,0,0,1-5.731-1.444,7.829,7.829,0,0,1-2.607-5.326c-.031-.46-.027-.922-.028-1.383,0-.115,0-.229,0-.344,0-.245,0-.491,0-.736q0-.583,0-1.166-.007-1.658-.012-3.316,0-.917-.007-1.834,0-.484,0-.968,0-.456,0-.911c0-.111,0-.222,0-.332A4.7,4.7,0,0,0,196,33.908a2.905,2.905,0,0,0-1.433-.74v-.841l.412-.023c2.465-.148,5.436-.575,7.326-2.355a.972.972,0,0,1,.732-.164l.269.008.2.011v.274q.007,3.221.018,6.441c0,.265,0,.53,0,.794,0,.053,0,.105,0,.16q0,1.277.006,2.554,0,1.312.008,2.624,0,.736,0,1.472,0,.694,0,1.388c0,.169,0,.338,0,.507a7,7,0,0,0,.544,3.4l.081.154a2.662,2.662,0,0,0,1.688,1.3,3.065,3.065,0,0,0,2.23-.35,6.64,6.64,0,0,0,.764-.688l.128-.126a6.488,6.488,0,0,0,.943-1.48l.122-.213a3.677,3.677,0,0,0,.137-1.455c0-.115,0-.231,0-.346q0-.468,0-.937,0-.492,0-.983,0-.826,0-1.652,0-.952,0-1.9,0-.82,0-1.639,0-.489,0-.977,0-.46,0-.92,0-.168,0-.336a5.137,5.137,0,0,0-.771-2.911,3,3,0,0,0-1.476-.784v-.841l.412-.023a12.807,12.807,0,0,0,7.538-2.5h.993c.025.681.051,1.362.076,2.064l.3-.382A6.346,6.346,0,0,1,225.79,30.717Z" transform="translate(-4.678 -0.352)" fill="#46d7ac"/>
    <path id="Path_4" data-name="Path 4" d="M248.537,32.119a11.375,11.375,0,0,1,2.861,7.787l-.009.373c-.6.257-1.207.494-1.824.714l-.258.093-.55.2-1.491.538-.155.056q-1.636.591-3.266,1.2-3.18,1.175-6.368,2.327a4.922,4.922,0,0,0,.182,1.071c.021.065.042.13.064.2s.045.134.069.2.048.141.072.213a5.768,5.768,0,0,0,2.886,3.466,5.462,5.462,0,0,0,4.064.123,10.021,10.021,0,0,0,4.309-3.282l.129-.168a12.491,12.491,0,0,0,1.066-1.748c.181.15.358.3.535.459l.208.185.212.2.2.186a.484.484,0,0,1,.143.412,4.845,4.845,0,0,1-.37.835l-.092.17a19.645,19.645,0,0,1-1.222,1.913l-.1.141a11.325,11.325,0,0,1-6.934,4.7,9.914,9.914,0,0,1-7.316-1.706c-.19-.149-.373-.3-.555-.461l-.187-.159a13.236,13.236,0,0,1-4.277-9.054A14.118,14.118,0,0,1,233.708,33q.164-.184.33-.366l.154-.173a10.4,10.4,0,0,1,7.231-2.957A9.688,9.688,0,0,1,248.537,32.119Zm-8.843.363-.151.128c-1.318,1.193-1.794,3.224-2.08,4.907-.012.069-.023.139-.036.21a23.125,23.125,0,0,0-.265,3.908c0,.144,0,.288,0,.432q0,.52.008,1.039c.564-.161,1.114-.35,1.664-.551l.258-.094.825-.3.567-.207q2.168-.791,4.33-1.6c.14-4.189.14-4.189-1.44-7.966a2.574,2.574,0,0,0-1.684-.71A3.1,3.1,0,0,0,239.694,32.482Z" transform="translate(-5.62 -0.354)" fill="#46d7ac"/>
    <path id="Path_5" data-name="Path 5" d="M155.523,32.119a11.288,11.288,0,0,1,2.861,7.744c0,.139-.006.277-.01.416-.6.256-1.208.494-1.823.714l-.258.093-.55.2-1.49.537-.155.056q-1.648.6-3.291,1.206-2.391.884-4.791,1.743l-.231.083-.425.152c-.3.108-.6.217-.9.339a6.907,6.907,0,0,0,2.24,4.5,5.286,5.286,0,0,0,3.96,1.055,9.071,9.071,0,0,0,5.447-3.567l.129-.168a12.484,12.484,0,0,0,1.065-1.748c.182.15.359.3.536.459l.208.185.212.2.2.186a.489.489,0,0,1,.146.405,5.742,5.742,0,0,1-.43.946l-.1.2a15.318,15.318,0,0,1-2.375,3.235l-.116.123a10.414,10.414,0,0,1-7,3.407,9.762,9.762,0,0,1-6.647-2.384l-.195-.167a13.333,13.333,0,0,1-4.2-9.169,14.048,14.048,0,0,1,2.947-9.849l.106-.127a10.326,10.326,0,0,1,6.982-3.569A10,10,0,0,1,155.523,32.119Zm-8.843.363-.152.128a5.064,5.064,0,0,0-1.071,1.554l-.125.245a15.228,15.228,0,0,0-1.1,4.723c-.012.1-.012.1-.024.212a21.675,21.675,0,0,0-.056,2.292c0,.143,0,.286,0,.429q0,.521,0,1.042c.583-.167,1.152-.363,1.723-.571l.275-.1.728-.264.45-.163c1.493-.541,2.984-1.089,4.468-1.654.152-4.275.152-4.275-1.535-8.05a2.434,2.434,0,0,0-1.761-.609A3.026,3.026,0,0,0,146.679,32.482Z" transform="translate(-3.183 -0.354)" fill="#46d7ac"/>
    <path id="Path_6" data-name="Path 6" d="M24.977,16v.363l-.167.082a5.416,5.416,0,0,0-2.824,3.232,7.222,7.222,0,0,0,.44,5.4c1.713,3.244,5.455,4.589,8.65,5.922,5.425,2.263,5.425,2.263,7.3,4.107.082.08.165.159.249.237a7.963,7.963,0,0,1,1.594,2.174l.05.1a10.636,10.636,0,0,1,.409,7.8A11.818,11.818,0,0,1,38.51,49.4l-.074.09a11.748,11.748,0,0,1-1.845,1.829l-.169.137a13.679,13.679,0,0,1-2.268,1.47L34.017,53a14.206,14.206,0,0,1-2.144.9l-.123.041a4.535,4.535,0,0,1-1.226.286.793.793,0,0,1,0-.311,1.9,1.9,0,0,1,.327-.224l.2-.12.1-.061a5.43,5.43,0,0,0,.667-.528l.1-.083a8.823,8.823,0,0,0,2.289-5.725,8.712,8.712,0,0,0-.415-3.474l-.039-.1a8.59,8.59,0,0,0-4.595-4.344q-.259-.124-.517-.251c-.795-.388-1.6-.742-2.416-1.083-1.175-.493-2.347-1-3.48-1.582-.108-.055-.217-.109-.326-.163a11.73,11.73,0,0,1-3.871-2.948l-.117-.142a9.912,9.912,0,0,1-2.009-4.732l-.021-.122a10.48,10.48,0,0,1,1.624-7.557,13.447,13.447,0,0,1,1.2-1.446l.074-.078C20.527,17.844,23.095,15.891,24.977,16Z" transform="translate(-0.007 0)" fill="#46d7ac"/>
    <path id="Path_7" data-name="Path 7" d="M36.556,17.489l.144.045a4.214,4.214,0,0,1,2.254,2.143,4.333,4.333,0,0,1-.946,5.071l-.1.1a4.138,4.138,0,0,1-2.918,1,4.412,4.412,0,0,1-3.154-1.413,4.253,4.253,0,0,1-1.1-2.983,4.628,4.628,0,0,1,1.476-3.145,4.8,4.8,0,0,1,1.543-.872l.143-.05A4.576,4.576,0,0,1,36.556,17.489Z" transform="translate(-0.386 -0.032)" fill="#46d7ab"/>
    <path id="Path_8" data-name="Path 8" d="M22.89,43.659A4.333,4.333,0,0,1,24.5,46.417a4.607,4.607,0,0,1-.783,3.315,4.343,4.343,0,0,1-2.795,1.662,4.7,4.7,0,0,1-3.584-1.1A4.354,4.354,0,0,1,16,47.32a4.285,4.285,0,0,1,1.058-3.048c.095-.1.191-.2.288-.292l.109-.114A4.363,4.363,0,0,1,22.89,43.659Z" transform="translate(0 -0.702)" fill="#46d7ac"/>
    <path id="Path_9" data-name="Path 9" d="M183.112,29.482c.153,0,.307,0,.46-.006a8.219,8.219,0,0,1,5.725,2.382,5.982,5.982,0,0,1,1.782,4.313,3.442,3.442,0,0,1-1.023,2.443,3.612,3.612,0,0,1-2.658,1,3.775,3.775,0,0,1-2.668-1.4,3.862,3.862,0,0,1-.63-2.747,3.778,3.778,0,0,1,.84-1.758l.172-.225c.116-.136.236-.261.363-.387a1.947,1.947,0,0,0-1.046-1.2,2.915,2.915,0,0,0-2.088.21,3.343,3.343,0,0,0-1.663,2.009,3.708,3.708,0,0,0,.447,2.823,12.361,12.361,0,0,0,4.278,3.355l.569.331.143.083c2.44,1.422,5.2,3.093,6.043,5.965a5.949,5.949,0,0,1-.41,4.358c-1.122,1.92-3.287,2.823-5.338,3.374a14.67,14.67,0,0,1-1.776.328l-.155.022a16.6,16.6,0,0,1-5.73-.251l-.207-.05a6.363,6.363,0,0,1-3.974-2.372A2.745,2.745,0,0,1,174.217,50a2.527,2.527,0,0,1,1.169-1.54,1.863,1.863,0,0,1,.84-.153l.059.113a7.063,7.063,0,0,0,4.221,3.785,5.058,5.058,0,0,0,3.532-.184,3.422,3.422,0,0,0,1.542-1.933,3.684,3.684,0,0,0-.464-2.747,11.832,11.832,0,0,0-4.11-3.01,25.353,25.353,0,0,1-4.169-2.751l-.163-.132a7.417,7.417,0,0,1-1.136-1.244l-.144-.181a6.617,6.617,0,0,1-1.212-4.712A5.909,5.909,0,0,1,176,32.023l.134-.151c1.291-1.428,3.456-2.024,5.293-2.3l.147-.022A12.105,12.105,0,0,1,183.112,29.482Z" transform="translate(-4.142 -0.353)" fill="#46d7ac"/>
    <path id="Path_10" data-name="Path 10" d="M132.79,17l.269.007.2.009v.215q0,6.323.014,12.646,0,.759,0,1.519v.305q0,2.447,0,4.894,0,2.511.007,5.023,0,1.549,0,3.1,0,1.063,0,2.125,0,.613,0,1.226,0,.562,0,1.124V49.6a4.381,4.381,0,0,0,.859,3.036,3.008,3.008,0,0,0,1.321.691v.917H124.32v-.917l.339-.081a2.365,2.365,0,0,0,1.366-1.037,5.1,5.1,0,0,0,.55-2.573c0-.115,0-.23,0-.345,0-.313,0-.626,0-.939q0-.508,0-1.016,0-.993,0-1.986,0-.807,0-1.615c0-.077,0-.154,0-.233v-.468q0-2.192,0-4.383,0-1.878,0-3.757,0-2.184,0-4.368c0-.155,0-.311,0-.466V29.83q0-.806,0-1.612,0-.983,0-1.966,0-.5,0-1c0-.306,0-.613,0-.919,0-.11,0-.22,0-.331a3.911,3.911,0,0,0-.956-2.93,2.124,2.124,0,0,0-1.3-.609v-.917l.457-.037a20.719,20.719,0,0,0,3.671-.575l.182-.049a8.919,8.919,0,0,0,3.257-1.609A1.139,1.139,0,0,1,132.79,17Z" transform="translate(-2.837 -0.026)" fill="#47d7ab"/>
    <path id="Path_11" data-name="Path 11" d="M52.128,29.806l.252,0,.193,0c0,.044,0,.089,0,.135q.007,3.955.017,7.91l0,.951c0,.063,0,.126,0,.191q0,1.53.006,3.061,0,1.571.007,3.143,0,.969,0,1.938,0,.665,0,1.33,0,.383,0,.767,0,.417,0,.833c0,.08,0,.159,0,.242a3.992,3.992,0,0,0,1.025,2.813,3,3,0,0,0,1.223.535v.917H43.629v-.917l.344-.086a2.542,2.542,0,0,0,1.491-1.213,6.524,6.524,0,0,0,.48-3.1q0-.212,0-.424,0-.573,0-1.146,0-.48,0-.959,0-1.133,0-2.265,0-1.165,0-2.33,0-1,0-2.007,0-.6,0-1.2,0-.563,0-1.125,0-.205,0-.411a4.979,4.979,0,0,0-.966-3.532,2.979,2.979,0,0,0-1.357-.611v-.841l.365-.02c2.387-.147,5.685-.562,7.438-2.444A1.024,1.024,0,0,1,52.128,29.806Z" transform="translate(-0.724 -0.362)" fill="#46d7ab"/>
    <path id="Path_12" data-name="Path 12" d="M169.4,29.8l.249.006.188.008c0,.044,0,.088,0,.134q.006,3.923.017,7.845,0,.472,0,.943v.19q0,1.518.007,3.035,0,1.559.008,3.117,0,.961,0,1.922,0,.66,0,1.32,0,.38,0,.76a5.591,5.591,0,0,0,.9,3.885,3.169,3.169,0,0,0,1.347.7v.917H160.9v-.917l.354-.1a2.521,2.521,0,0,0,1.518-1.251,6.181,6.181,0,0,0,.442-2.845c0-.145,0-.291,0-.436q0-.59,0-1.179,0-.493,0-.987,0-1.165,0-2.33,0-1.2,0-2.4,0-1.032,0-2.064,0-.615,0-1.23,0-.579,0-1.158c0-.141,0-.282,0-.423a4.646,4.646,0,0,0-.971-3.4,2.614,2.614,0,0,0-1.352-.616v-.841l.375-.023c2.533-.166,5.337-.6,7.311-2.347A1.013,1.013,0,0,1,169.4,29.8Z" transform="translate(-3.796 -0.361)" fill="#46d7ab"/>
    <path id="Path_13" data-name="Path 13" d="M51.795,20.151A4.159,4.159,0,0,1,53.1,23.084a3.733,3.733,0,0,1-2.852,3.7l-.139.045a4.144,4.144,0,0,1-2.9-.513,4,4,0,0,1-1.672-2.429,4.275,4.275,0,0,1-.053-.8c0-.085,0-.085,0-.172a3.188,3.188,0,0,1,.252-1.251l.082-.194a3.93,3.93,0,0,1,2.306-2.026A4.071,4.071,0,0,1,51.795,20.151Z" transform="translate(-0.772 -0.085)" fill="#46d7ac"/>
    <path id="Path_14" data-name="Path 14" d="M169.178,20.271a3.878,3.878,0,0,1,1.095,1.854c.015.046.029.092.045.139a4.15,4.15,0,0,1-.513,2.9,4,4,0,0,1-2.429,1.672,4.272,4.272,0,0,1-.8.053H166.4a3.827,3.827,0,0,1-2.5-1.036,4.153,4.153,0,0,1-1.133-3,3.89,3.89,0,0,1,1.306-2.669A3.957,3.957,0,0,1,169.178,20.271Z" transform="translate(-3.845 -0.086)" fill="#46d7ac"/>
  </g>
</svg>
