<?xml version="1.0" encoding="UTF-8"?>
<svg id="Layer_2" data-name="Layer 2" xmlns="http://www.w3.org/2000/svg" viewBox="0 0 34.31 32.5">
  <defs>
    <style>
      .cls-1 {
        fill: #4a9195;
      }

      .cls-2 {
        fill: #2ee68a;
      }
    </style>
  </defs>
  <g id="Layer_1-2" data-name="Layer 1">
    <g>
      <rect class="cls-2" y="23.9" width="4.23" height="8.6" rx=".56" ry=".56"/>
      <rect class="cls-2" x="7.3" y="15.93" width="4.23" height="16.57" rx=".56" ry=".56"/>
      <path class="cls-1" d="M21.5,31.78v-3.48c0-.31.25-.56.56-.56h7.45c.31,0,.56-.25.56-.56v-10.27c0-.31.25-.56.56-.56h3.1c.31,0,.56.25.56.56v14.88c0,.31-.25.56-.56.56h-11.68c-.31,0-.56-.25-.56-.56Z"/>
      <path class="cls-2" d="M21.65,10.55l4.58-4.9c.33-.36.08-.94-.41-.94h-3.75c-.31,0-.56-.25-.56-.56V.66c0-.31.25-.56.56-.56h11.68c.31,0,.56.25.56.56v12.28c0,.31-.25.56-.56.56h-3.1c-.31,0-.56-.25-.56-.56v-3.53c0-.51-.63-.76-.98-.38l-6.63,7.13c-.35.38-.98.13-.98-.38v-4.85c0-.14.05-.28.15-.38Z"/>
      <path class="cls-1" d="M0,20.65V.56c0-.31.25-.56.56-.56h18.04c.31,0,.56.25.56.56v3.48c0,.31-.25.56-.56.56H4.79c-.31,0-.56.25-.56.56v2.91c0,.31.25.56.56.56h6.17c.31,0,.56.25.56.56v3.48c0,.31-.25.56-.56.56h-6.17c-.31,0-.56.25-.56.56v6.85c0,.31-.25.56-.56.56H.56c-.31,0-.56-.25-.56-.56Z"/>
      <path class="cls-2" d="M14.75,31.78V9.27c0-.31.25-.56.56-.56h3.1c.31,0,.56.25.56.56v5.6h0s0,16.9,0,16.9c0,.31-.25.56-.56.56h-3.1c-.31,0-.56-.25-.56-.56Z"/>
    </g>
  </g>
</svg>