<svg xmlns="http://www.w3.org/2000/svg" width="19.795" height="30" viewBox="0 0 19.795 30">
  <g id="Group_3" data-name="Group 3" transform="translate(-599 -826.68)">
    <path id="Path_6" data-name="Path 6" d="M23.1,16v.285l-.131.064a4.252,4.252,0,0,0-2.217,2.537,5.669,5.669,0,0,0,.345,4.24c1.345,2.546,4.282,3.6,6.79,4.648,4.259,1.776,4.259,1.776,5.733,3.224.064.063.13.124.2.186a6.251,6.251,0,0,1,1.251,1.706l.039.075a8.349,8.349,0,0,1,.321,6.125,9.276,9.276,0,0,1-1.7,3.12l-.058.07a9.221,9.221,0,0,1-1.448,1.436l-.133.107a10.738,10.738,0,0,1-1.78,1.154l-.108.058a11.152,11.152,0,0,1-1.683.7l-.1.032a3.56,3.56,0,0,1-.962.224.622.622,0,0,1,0-.244,1.489,1.489,0,0,1,.257-.176l.157-.095.08-.048a4.262,4.262,0,0,0,.524-.414l.075-.065a6.926,6.926,0,0,0,1.8-4.494,6.838,6.838,0,0,0-.326-2.727l-.03-.081a6.743,6.743,0,0,0-3.607-3.41l-.406-.2c-.624-.3-1.257-.582-1.9-.85-.922-.387-1.842-.782-2.732-1.242-.085-.043-.171-.086-.256-.128a9.207,9.207,0,0,1-3.038-2.314l-.092-.112a7.781,7.781,0,0,1-1.577-3.714l-.016-.1a8.227,8.227,0,0,1,1.275-5.932,10.555,10.555,0,0,1,.94-1.135l.058-.062C19.61,17.448,21.626,15.914,23.1,16Z" transform="translate(582.938 810.68)" fill="#fff"/>
    <path id="Path_7" data-name="Path 7" d="M35.3,17.435l.113.036a3.308,3.308,0,0,1,1.769,1.682,3.4,3.4,0,0,1-.742,3.981l-.077.081A3.248,3.248,0,0,1,34.077,24,3.464,3.464,0,0,1,31.6,22.889a3.339,3.339,0,0,1-.863-2.342A3.633,3.633,0,0,1,31.9,18.078a3.767,3.767,0,0,1,1.211-.684l.112-.039A3.592,3.592,0,0,1,35.3,17.435Z" transform="translate(579.528 810.389)" fill="#fff"/>
    <path id="Path_8" data-name="Path 8" d="M21.408,43.477a3.4,3.4,0,0,1,1.267,2.165,3.617,3.617,0,0,1-.614,2.6,3.409,3.409,0,0,1-2.194,1.3,3.689,3.689,0,0,1-2.813-.86A3.418,3.418,0,0,1,16,46.351a3.364,3.364,0,0,1,.831-2.393c.074-.078.15-.153.226-.229l.086-.09A3.425,3.425,0,0,1,21.408,43.477Z" transform="translate(583 804.363)" fill="#fff"/>
  </g>
</svg>
